<?xml version="1.0" encoding="UTF-8"?>
<svg id="Layer_1" data-name="Layer 1" xmlns="http://www.w3.org/2000/svg" xmlns:xlink="http://www.w3.org/1999/xlink" version="1.1" viewBox="0 0 267 80">
  <defs>
    <style>
      .cls-1 {
        clip-path: url(#clippath);
      }

      .cls-2 {
        mask: url(#mask);
      }

      .cls-3, .cls-4, .cls-5 {
        fill: #fff;
      }

      .cls-6 {
        clip-path: url(#clippath-1);
      }

      .cls-4 {
        fill-rule: evenodd;
      }

      .cls-4, .cls-5 {
        stroke-width: 0px;
      }
    </style>
    <mask id="mask" x="0" y="0" width="267.2" height="79.7" maskUnits="userSpaceOnUse">
      <g id="a">
        <path class="cls-5" d="M267,0H0v79.4h267V0Z"/>
      </g>
    </mask>
    <clipPath id="clippath">
      <path class="cls-5" d="M76.3,29c-.7-.4-1.6-.4-2.3,0l-19.4,11.3c-.7.4-1.2,1.2-1.2,2v22.6c0,.8.5,1.6,1.2,2l19.4,11.3c.7.4,1.6.4,2.3,0l19.4-11.3c.7-.4,1.2-1.2,1.2-2v-22.6c0-.8-.5-1.6-1.2-2l-19.4-11.3Z"/>
    </clipPath>
    <clipPath id="clippath-1">
      <path class="cls-5" d="M76.3,29c-.7-.4-1.6-.4-2.3,0l-19.4,11.3c-.7.4-1.2,1.2-1.2,2v22.6c0,.8.5,1.6,1.2,2l19.4,11.3c.7.4,1.6.4,2.3,0l19.4-11.3c.7-.4,1.2-1.2,1.2-2v-22.6c0-.8-.5-1.6-1.2-2l-19.4-11.3Z"/>
    </clipPath>
  </defs>
  <g class="cls-2">
    <g>
      <path class="cls-5" d="M235,78.8c-.7,0-1.3-.2-1.9-.5l-6.1-3.7c-.9-.5-.5-.7-.2-.8,1.2-.4,1.5-.5,2.8-1.2.1,0,.3,0,.5,0l4.7,2.8c.2,0,.4,0,.6,0l18.4-10.7c.2,0,.3-.3.3-.5v-21.3c0-.2,0-.4-.3-.5l-18.4-10.6c-.2,0-.4,0-.6,0l-18.4,10.6c-.2,0-.3.3-.3.5v21.3c0,.2,0,.4.3.5l5,2.9c2.7,1.4,4.4-.2,4.4-1.9v-21.1c0-.3.2-.6.6-.6h2.3c.3,0,.6.2.6.6v21.1c0,3.7-2,5.8-5.4,5.8s-1.9,0-4.2-1.2l-4.8-2.8c-1.2-.7-1.9-2-1.9-3.4v-21.3c0-1.4.7-2.7,1.9-3.4l18.4-10.7c1.1-.6,2.7-.6,3.9,0l18.4,10.7c1.2.7,1.9,2,1.9,3.4v21.3c0,1.4-.7,2.7-1.9,3.4l-18.4,10.7c-.6.2-1.2.4-1.9.4"/>
      <path class="cls-5" d="M240.7,64.1c-8.1,0-9.7-3.7-9.7-6.9s.2-.6.6-.6h2.4c.3,0,.5.2.5.5.4,2.5,1.4,3.7,6.3,3.7s5.5-.9,5.5-3-.5-2.1-6.5-2.7c-5-.5-8.1-1.6-8.1-5.7s3.1-6,8.4-6,8.8,2,9.2,6.5c0,.1,0,.3-.1.4,0,0-.2.2-.4.2h-2.4c-.2,0-.4-.2-.5-.4-.6-2.5-2-3.4-5.8-3.4s-4.7,1.5-4.7,2.6.6,1.8,6.3,2.5c5.7.7,8.3,1.8,8.3,5.8s-3.4,6.4-9.2,6.4M267.2,41.7c0,1.9-1.6,3.6-3.5,3.6-2,0-3.5-1.6-3.5-3.6,0-2,1.6-3.6,3.5-3.6,1.9,0,3.5,1.6,3.5,3.6M260.7,41.7c0,1.7,1.3,3,2.9,3s3-1.4,3-3-1.3-3-3-3c-1.6,0-2.9,1.3-2.9,3M262.3,39.7h1.4c.5,0,1.4,0,1.4,1.1s-.5.9-.7,1c.6,0,.6.4.6.9,0,.3,0,.9.2,1.1h-.8c0-.2-.1-1.2-.1-1.2,0-.2-.1-.3-.4-.3h-.7v1.6h-.8v-4.1ZM263.1,41.4h.6c.5,0,.6-.4.6-.6,0-.6-.4-.6-.6-.6h-.6v1.1h0Z"/>
      <path class="cls-4" d="M43.7,42c0-.8-.5-1.6-1.2-2l-19.5-11.3c-.3-.2-.7-.3-1.1-.3h-.2c-.4,0-.7.1-1.1.3L1.2,39.9c-.7.4-1.2,1.2-1.2,2.1v30.4c0,.4.3.8.6,1,.4.2.8.2,1.1,0l11.6-6.7c.7-.4,1.2-1.2,1.2-2v-14.2c0-.8.5-1.6,1.2-2l4.9-2.9c.4-.2.8-.3,1.2-.3.4,0,.8,0,1.1.3l4.9,2.9c.7.4,1.2,1.2,1.2,2v14.2c0,.8.5,1.6,1.2,2l11.5,6.7c.4.2.8.2,1.2,0,.4-.2.6-.6.6-1v-30.4ZM137.5.1c-.4-.2-.8-.2-1.2,0-.4.2-.6.6-.6,1v30.1c0,.3-.2.6-.4.7-.3.1-.6.1-.8,0l-4.9-2.8c-.7-.4-1.6-.4-2.3,0l-19.5,11.3c-.7.4-1.2,1.2-1.2,2v22.6c0,.8.5,1.6,1.2,2l19.5,11.3c.7.4,1.6.4,2.3,0l19.5-11.3c.7-.4,1.2-1.2,1.2-2V8.8c0-.9-.5-1.7-1.2-2.1L137.5.1ZM135.7,57.7c0,.2,0,.4-.3.5l-6.7,3.9c-.2,0-.4,0-.6,0l-6.7-3.9c-.2,0-.3-.3-.3-.5v-7.8c0-.2,0-.4.3-.5l6.7-3.9c.2,0,.4,0,.6,0l6.7,3.9c.2,0,.3.3.3.5v7.8ZM202.4,49.8c.7-.4,1.2-1.2,1.2-2v-5.5c0-.8-.5-1.6-1.2-2l-19.4-11.3c-.7-.4-1.6-.4-2.3,0l-19.5,11.3c-.7.4-1.2,1.2-1.2,2v22.6c0,.8.5,1.6,1.2,2l19.4,11.1c.7.4,1.6.4,2.3,0l11.7-6.6c.4-.2.6-.6.6-1s-.2-.8-.6-1l-19.6-11.3c-.4-.2-.6-.6-.6-1v-7.1c0-.4.2-.8.6-1l6.1-3.5c.4-.2.8-.2,1.2,0l6.1,3.5c.4.2.6.6.6,1v5.6c0,.4.2.8.6,1,.4.2.8.2,1.2,0l11.6-6.8Z"/>
      <path class="cls-4" d="M181.6,48.7c.1,0,.3,0,.5,0l3.7,2.2c.1,0,.2.2.2.4v4.4c0,.2,0,.3-.2.4l-3.7,2.2c-.1,0-.3,0-.5,0l-3.7-2.2c-.1,0-.2-.2-.2-.4v-4.4c0-.2,0-.3.2-.4l3.7-2.2Z"/>
      <g>
        <path class="cls-5" d="M76.3,29c-.7-.4-1.6-.4-2.3,0l-19.4,11.3c-.7.4-1.2,1.2-1.2,2v22.6c0,.8.5,1.6,1.1,2l19.4,11.3c.7.4,1.6.4,2.3,0l19.4-11.3c.7-.4,1.2-1.2,1.2-2v-22.6c0-.8-.5-1.6-1.2-2l-19.4-11.3Z"/>
        <g>
          <path class="cls-3" d="M76.3,29c-.7-.4-1.6-.4-2.3,0l-19.4,11.3c-.7.4-1.2,1.2-1.2,2v22.6c0,.8.5,1.6,1.2,2l19.4,11.3c.7.4,1.6.4,2.3,0l19.4-11.3c.7-.4,1.2-1.2,1.2-2v-22.6c0-.8-.5-1.6-1.2-2l-19.4-11.3Z"/>
          <g class="cls-1">
            <path class="cls-5" d="M75.1,27.6l21.5,13-21.5,39.1-21.5-13,21.5-39.1Z"/>
          </g>
        </g>
        <g>
          <path class="cls-3" d="M76.3,29c-.7-.4-1.6-.4-2.3,0l-19.4,11.3c-.7.4-1.2,1.2-1.2,2v22.6c0,.8.5,1.6,1.2,2l19.4,11.3c.7.4,1.6.4,2.3,0l19.4-11.3c.7-.4,1.2-1.2,1.2-2v-22.6c0-.8-.5-1.6-1.2-2l-19.4-11.3Z"/>
          <g class="cls-6">
            <path class="cls-5" d="M75.1,27.6l-21.5,13,21.5,39.1,21.5-13-21.5-39.1Z"/>
          </g>
        </g>
      </g>
    </g>
  </g>
</svg>