<?xml version="1.0" encoding="UTF-8"?>
<svg id="Layer_1" data-name="Layer 1" xmlns="http://www.w3.org/2000/svg" version="1.1" viewBox="0 0 104.8 36.9">
  <defs>
    <style>
      .cls-1 {
        fill: #848484;
      }

      .cls-1, .cls-2 {
        stroke-width: 0px;
      }

      .cls-2 {
        fill: #000;
      }
    </style>
  </defs>
  <path class="cls-1" d="M34.5,0h8.5l-21.4,36.9L0,0h8.7l12.9,22.2L34.5,0Z"/>
  <path class="cls-2" d="M26.5,0h8.1l-13,22.3L8.7,0h7.9l5,8.6L26.5,0Z"/>
  <path class="cls-2" d="M48,7.3c0-.3.2-.5.5-.7.3-.2.6-.3.9-.3.5,0,.7.2.9.5l4.8,16.2,4.8-16.2c0-.3.4-.5.8-.5s.7,0,1,.3c.3.2.5.4.5.7h0c0,0-5.6,18.2-5.6,18.2-.2.5-.7.8-1.5.8s-1.2-.3-1.4-.8l-5.6-18.1v-.2h0ZM62.4,21.2v-7.1c0-.2,0-.4.3-.6s.5-.2.8-.2.6,0,.8.3c.2.2.3.4.3.6v7.1c0,.8.3,1.6.9,2.2s1.4,1,2.2,1,1.6-.3,2.2-1,.9-1.4.9-2.2v-7.1c0-.2,0-.4.3-.5.2-.2.5-.2.8-.2s.6,0,.8.2.3.3.3.6v7.1c0,1.4-.5,2.6-1.6,3.7-1.1,1-2.3,1.6-3.8,1.6s-2.8-.5-3.8-1.6c-1.1-1-1.6-2.3-1.6-3.7l.2-.2ZM75.1,21.2v-2.9c0-1.4.5-2.6,1.6-3.6s2.4-1.5,3.9-1.5c2.2,0,2.7.5,3.7,1.4,1,1,1.6,2.1,1.6,3.6s0,.9-.2,1.3c0,.3-.3.5-.6.7-.3.1-.5.2-.7.3h-6.9v.8c0,1,.4,1.8,1.1,2.4s1.7.9,2.8.9,1.1,0,1.6-.3c.4-.2.8-.4,1.1-.5.3-.2.5-.3.7-.3.3,0,.5.1.7.3s.3.5.3.7c0,.4-.4.8-1.3,1.3-.8.4-1.9.7-3.1.7-1.8,0-3.3-.5-4.4-1.5s-1.7-2.2-1.7-3.8h-.2ZM77.4,18.9h5.1c.5,0,.8,0,1-.2s.2-.3.2-.7c0-.8-.3-1.5-.9-2.2-.6-.6-1.3-.9-2.2-.9s-1.6.3-2.2.9c-.6.6-.9,1.3-.9,2.1v1h0ZM87,25c0-.4,0-.7.4-1s.6-.4,1-.4.7.1,1,.4.4.6.4,1,0,.7-.4,1-.6.4-1,.4-.7-.1-1-.4-.4-.6-.4-1M89.1,31.5c0-.3,0-.5.3-.7.2-.2.4-.3.7-.3.7,0,1.2-.3,1.4-.8.2-.5.3-1.3.3-2.4v-13.2c0-.2,0-.4.3-.6.2-.1.5-.2.8-.2s.6,0,.8.2c.2,0,.3.3.3.6v13.2c0,1.6-.3,2.8-.9,3.8-.6.9-1.6,1.4-2.8,1.4s-1.2-.3-1.2-1M91.4,8.5c0-.3,0-.6.4-.9s.6-.4,1-.4.7,0,1,.4.4.6.4.9,0,.6-.4.9-.6.4-1,.4-.7-.1-1-.4-.4-.6-.4-.9M95.7,24.4c0-.2,0-.5.2-.7s.3-.3.6-.3.4.1.6.3c.3.2.7.4,1.2.6s1.1.3,1.8.3c1.1,0,1.6-.2,2-.5.4-.3.6-.7.6-1.2,0-.8-.2-1.1-.7-1.4-.5-.4-1-.6-1.7-.8s-1.3-.4-2-.6-1.2-.6-1.7-1.1-.7-1.2-.7-2,.4-1.9,1.1-2.7,1.9-1.1,3.4-1.1,1.9.1,2.7.4,1.2.6,1.2,1,0,.5-.3.7c-.2.3-.4.4-.6.4s-.4-.1-1.1-.4c-.6-.3-1.3-.4-1.9-.4s-1.5.2-1.9.6-.6.8-.6,1.3.2.9.7,1.2,1,.5,1.7.7,1.3.4,2,.6,1.2.6,1.7,1.2.7,1.3.7,2.2-.4,2-1.2,2.7-1.9,1-3.4,1-2.3-.2-3.2-.7c-.9-.4-1.3-.9-1.3-1.4h.1Z"/>
</svg>